<svg width="50" height="50" viewBox="0 0 50 50" fill="none" xmlns="http://www.w3.org/2000/svg">
<g clip-path="url(#clip0_152_6)">
<path d="M40 0H10C4.47715 0 0 4.47715 0 10V40C0 45.5228 4.47715 50 10 50H40C45.5228 50 50 45.5228 50 40V10C50 4.47715 45.5228 0 40 0Z" fill="black"/>
<path d="M15.1279 10.5602L15.1519 10.2002H20.9839C22.6319 10.2002 23.9039 10.5602 24.7999 11.2802C25.6959 12.0002 26.1439 13.0722 26.1439 14.4962C26.1439 15.4242 25.7839 16.3922 25.0639 17.4002C24.3599 18.4082 23.6959 19.0562 23.0719 19.3442L27.5119 26.5682L28.6879 26.6402C28.6879 26.6562 28.6799 26.7762 28.6639 27.0002L26.0479 27.0242L21.4879 19.6322H18.2959V26.5442L19.9759 26.6402C19.9759 26.6562 19.9679 26.7762 19.9519 27.0002L15.1279 27.0242L15.1519 26.6882L16.3999 26.5202C16.5119 26.5042 16.5999 26.4322 16.6639 26.3042V10.9442C16.6159 10.8002 16.5279 10.7202 16.3999 10.7042L15.1279 10.5602ZM20.8639 10.5602H18.2959V19.2722H22.3999C23.2319 18.3282 23.7919 17.4962 24.0799 16.7762C24.3679 16.0402 24.5119 15.3282 24.5119 14.6402C24.5119 13.2962 24.1999 12.2802 23.5759 11.5922C22.9519 10.9042 22.0479 10.5602 20.8639 10.5602Z" fill="white"/>
<path d="M28.4602 40.6399C28.5802 40.6399 28.7002 40.6299 28.8202 40.6099C29.8602 40.5899 30.7302 40.2699 31.4302 39.6499C32.1302 39.0099 32.4802 38.0799 32.4802 36.8599C32.4802 35.6599 31.5402 34.7899 29.6602 34.2499C28.8802 34.0299 28.1002 33.7899 27.3202 33.5299C26.5402 33.2699 25.8702 32.8599 25.3102 32.2999C24.7702 31.7399 24.5002 31.0099 24.5002 30.1099C24.5002 28.8299 24.9902 27.8099 25.9702 27.0499C26.9502 26.2699 28.1902 25.8799 29.6902 25.8799C30.8102 25.8799 31.9402 26.0799 33.0802 26.4799L33.6202 26.6899V30.1399L33.0502 30.3499L32.9302 27.7999C31.7702 26.8799 30.8002 26.4199 30.0202 26.4199C28.9202 26.4199 28.0502 26.7499 27.4102 27.4099C26.7702 28.0499 26.4502 28.9099 26.4502 29.9899C26.4502 30.6099 26.7202 31.1099 27.2602 31.4899C27.8202 31.8699 28.4902 32.1699 29.2702 32.3899C30.0502 32.6099 30.8302 32.8599 31.6102 33.1399C32.3902 33.3999 33.0502 33.8399 33.5902 34.4599C34.1502 35.0599 34.4302 35.8499 34.4302 36.8299C34.4302 38.1499 33.9302 39.1999 32.9302 39.9799C31.9502 40.7399 30.5502 41.1199 28.7302 41.1199C26.9102 41.1199 25.4002 40.6899 24.2002 39.8299V36.3799L24.7402 36.1699L24.8902 38.7199C25.1702 39.2399 25.6702 39.6899 26.3902 40.0699C27.1302 40.4499 27.8202 40.6399 28.4602 40.6399Z" fill="white"/>
</g>
<defs>
<clipPath id="clip0_152_6">
<rect width="50" height="50" fill="white"/>
</clipPath>
</defs>
</svg>
